<svg width="290" height="200" viewBox="0 0 290 200" fill="none" xmlns="http://www.w3.org/2000/svg">
<rect x="0.5" y="0.5" width="289" height="199" fill="white" stroke="#D8E6FC"/>
<rect x="16" y="24" width="129" height="110.571" rx="3.68571" fill="#EFF5FF"/>
<path d="M45.9449 76.518C52.3052 76.518 57.4611 71.362 57.4611 65.0018C57.4611 58.6416 52.3052 53.4856 45.9449 53.4856C39.5847 53.4856 34.4287 58.6416 34.4287 65.0018C34.4287 71.362 39.5847 76.518 45.9449 76.518Z" fill="#BED6F9"/>
<path d="M72.8161 97.2181L57.4611 82.6407L34.4287 104.507V104.522H126.558V104.507L95.8485 75.3519L72.8161 97.2181Z" fill="#BED6F9"/>
<rect x="149.607" y="24" width="122.55" height="52.5214" rx="3.68571" fill="#EFF5FF"/>
<path d="M196.061 49.6441C198.817 49.6441 201.051 47.41 201.051 44.6541C201.051 41.8982 198.817 39.6641 196.061 39.6641C193.305 39.6641 191.071 41.8982 191.071 44.6541C191.071 47.41 193.305 49.6441 196.061 49.6441Z" fill="#BED6F9"/>
<path d="M207.705 58.6135L201.051 52.297L191.071 61.7717V61.7784H230.991V61.7717L217.685 49.1388L207.705 58.6135Z" fill="#BED6F9"/>
<rect x="149.607" y="82.0498" width="59.8929" height="52.5214" rx="3.68571" fill="#EFF5FF"/>
<path d="M164.733 107.694C167.489 107.694 169.723 105.46 169.723 102.704C169.723 99.9482 167.489 97.7141 164.733 97.7141C161.977 97.7141 159.743 99.9482 159.743 102.704C159.743 105.46 161.977 107.694 164.733 107.694Z" fill="#BED6F9"/>
<path d="M176.377 116.664L169.723 110.347L159.743 119.822V119.828H199.663V119.822L186.357 107.189L176.377 116.664Z" fill="#BED6F9"/>
<rect x="214.107" y="82.0498" width="59.8929" height="52.5214" rx="3.68571" fill="#EFF5FF"/>
<path d="M229.233 107.694C231.989 107.694 234.223 105.46 234.223 102.704C234.223 99.9482 231.989 97.7141 229.233 97.7141C226.477 97.7141 224.243 99.9482 224.243 102.704C224.243 105.46 226.477 107.694 229.233 107.694Z" fill="#BED6F9"/>
<path d="M240.876 116.664L234.223 110.347L224.243 119.822V119.828H264.163V119.822L250.856 107.189L240.876 116.664Z" fill="#BED6F9"/>
<rect x="224.703" y="125.941" width="17.9986" height="4.48429" rx="2.24214" fill="white" stroke="#BED6F9" stroke-width="0.921429"/>
<rect x="246.326" y="125.94" width="17.9986" height="4.48429" rx="2.24214" fill="white" stroke="#BED6F9" stroke-width="0.921429"/>
<rect x="16" y="147" width="170" height="8" rx="4" fill="#D8E6FC"/>
<rect x="16" y="161" width="130" height="8" rx="4" fill="#D8E6FC"/>
<rect x="16" y="175" width="96" height="8" rx="4" fill="#D8E6FC"/>
<rect x="190" y="147" width="15" height="18" rx="2" fill="#BED6F9"/>
<rect x="192" y="159" width="11" height="4" fill="white"/>
<mask id="path-21-inside-1_2947_810" fill="white">
<path d="M209 153C209 149.686 211.686 147 215 147H268C271.314 147 274 149.686 274 153V199H209V153Z"/>
</mask>
<path d="M209 153C209 149.686 211.686 147 215 147H268C271.314 147 274 149.686 274 153V199H209V153Z" fill="#EFF5FF"/>
<path d="M208 153C208 149.134 211.134 146 215 146H268C271.866 146 275 149.134 275 153H273C273 150.239 270.761 148 268 148H215C212.239 148 210 150.239 210 153H208ZM274 199H209H274ZM208 199V153C208 149.134 211.134 146 215 146V148C212.239 148 210 150.239 210 153V199H208ZM268 146C271.866 146 275 149.134 275 153V199H273V153C273 150.239 270.761 148 268 148V146Z" fill="#BED6F9" mask="url(#path-21-inside-1_2947_810)"/>
<circle cx="20" cy="12" r="4" fill="#BED6F9"/>
<path d="M28 15L31 12L28 9" stroke="#BED6F9" stroke-linecap="round" stroke-linejoin="round"/>
<rect x="35" y="9.5" width="24" height="5" rx="2.5" fill="#D8E6FC"/>
<path d="M63 15L66 12L63 9" stroke="#BED6F9" stroke-linecap="round" stroke-linejoin="round"/>
<rect x="70" y="9.5" width="20" height="5" rx="2.5" fill="#D8E6FC"/>
<path d="M94 15L97 12L94 9" stroke="#BED6F9" stroke-linecap="round" stroke-linejoin="round"/>
<rect x="101" y="9.5" width="74" height="5" rx="2.5" fill="#D8E6FC"/>
</svg>
