<svg width="290" height="200" viewBox="0 0 290 200" fill="none" xmlns="http://www.w3.org/2000/svg">
<rect x="0.5" y="0.5" width="289" height="199" fill="white" stroke="#D8E6FC"/>
<rect x="1" y="1" width="288" height="149" fill="#EFF5FF"/>
<path d="M93.1621 73.5586C103.258 73.5586 111.441 65.3747 111.441 55.2793C111.441 45.1839 103.258 37 93.1621 37C83.0667 37 74.8828 45.1839 74.8828 55.2793C74.8828 65.3747 83.0667 73.5586 93.1621 73.5586Z" fill="#BED6F9"/>
<path d="M135.814 106.415L111.441 83.2768L74.8828 117.984V118.009H221.117V117.984L172.373 71.7076L135.814 106.415Z" fill="#BED6F9"/>
<rect x="217.5" y="134.5" width="27" height="7" rx="3.5" fill="white" stroke="#BED6F9"/>
<rect x="249.5" y="134.5" width="27" height="7" rx="3.5" fill="white" stroke="#BED6F9"/>
<path d="M253 100C253 106.627 258.373 112 265 112C271.627 112 277 106.627 277 100C277 93.3726 271.627 88 265 88C258.373 88 253 93.3726 253 100Z" fill="white"/>
<path d="M260 100H270M270 100L266.25 96M270 100L266.25 104" stroke="#8BB7F5" stroke-width="1.39" stroke-linecap="round" stroke-linejoin="round"/>
<path d="M37 100C37 106.627 31.6274 112 25 112C18.3726 112 13 106.627 13 100C13 93.3726 18.3726 88 25 88C31.6274 88 37 93.3726 37 100Z" fill="white"/>
<path d="M30 100H20M20 100L23.75 96M20 100L23.75 104" stroke="#8BB7F5" stroke-width="1.39" stroke-linecap="round" stroke-linejoin="round"/>
<rect x="16" y="157" width="170" height="8" rx="4" fill="#D8E6FC"/>
<rect x="16" y="171" width="130" height="8" rx="4" fill="#D8E6FC"/>
<rect x="16" y="185" width="96" height="8" rx="4" fill="#D8E6FC"/>
<rect x="190" y="157" width="15" height="18" rx="2" fill="#BED6F9"/>
<rect x="192" y="169" width="11" height="4" fill="white"/>
<mask id="path-16-inside-1_2947_807" fill="white">
<path d="M209 163C209 159.686 211.686 157 215 157H268C271.314 157 274 159.686 274 163V199H209V163Z"/>
</mask>
<path d="M209 163C209 159.686 211.686 157 215 157H268C271.314 157 274 159.686 274 163V199H209V163Z" fill="#EFF5FF"/>
<path d="M208 163C208 159.134 211.134 156 215 156H268C271.866 156 275 159.134 275 163H273C273 160.239 270.761 158 268 158H215C212.239 158 210 160.239 210 163H208ZM274 199H209H274ZM208 199V163C208 159.134 211.134 156 215 156V158C212.239 158 210 160.239 210 163V199H208ZM268 156C271.866 156 275 159.134 275 163V199H273V163C273 160.239 270.761 158 268 158V156Z" fill="#BED6F9" mask="url(#path-16-inside-1_2947_807)"/>
<circle cx="20" cy="12" r="4" fill="#BED6F9"/>
<path d="M28 15L31 12L28 9" stroke="#BED6F9" stroke-linecap="round" stroke-linejoin="round"/>
<rect x="35" y="9.5" width="24" height="5" rx="2.5" fill="#D8E6FC"/>
<path d="M63 15L66 12L63 9" stroke="#BED6F9" stroke-linecap="round" stroke-linejoin="round"/>
<rect x="70" y="9.5" width="20" height="5" rx="2.5" fill="#D8E6FC"/>
<path d="M94 15L97 12L94 9" stroke="#BED6F9" stroke-linecap="round" stroke-linejoin="round"/>
<rect x="101" y="9.5" width="74" height="5" rx="2.5" fill="#D8E6FC"/>
</svg>
