<svg width="290" height="200" viewBox="0 0 290 200" fill="none" xmlns="http://www.w3.org/2000/svg">
<rect x="0.5" y="0.5" width="289" height="199" fill="white" stroke="#D8E6FC"/>
<rect x="1" y="1" width="288" height="149" fill="#EFF5FF"/>
<path d="M90.2793 73.5586C100.375 73.5586 108.559 65.3747 108.559 55.2793C108.559 45.1839 100.375 37 90.2793 37C80.1839 37 72 45.1839 72 55.2793C72 65.3747 80.1839 73.5586 90.2793 73.5586Z" fill="#BED6F9"/>
<path d="M132.931 106.415L108.559 83.2768L72 117.984V118.009H218.235V117.984L169.49 71.7076L132.931 106.415Z" fill="#BED6F9"/>
<rect x="218.221" y="130.5" width="27" height="7" rx="3.5" fill="white" stroke="#BED6F9"/>
<rect x="250.221" y="130.5" width="27" height="7" rx="3.5" fill="white" stroke="#BED6F9"/>
<mask id="mask0_2947_808" style="mask-type:alpha" maskUnits="userSpaceOnUse" x="5" y="129" width="280" height="25">
<rect x="5" y="129" width="280" height="25" fill="#D9D9D9"/>
</mask>
<g mask="url(#mask0_2947_808)">
<path d="M579.292 151.188C578.683 150.107 578.085 150.308 577.115 148.42C575.105 149.858 573.17 153.336 571.305 149.821C569.343 150.746 566.991 149.371 564.598 151.27C562.206 149.156 559.795 149.68 557.688 150.806C554.82 151.708 553.074 146.128 550.06 147.729C546.416 146.696 542.552 152.92 538.933 151.864C536.314 148.788 533.531 149.074 530.938 150.334C529.861 151.259 529.203 150.085 528.296 149.134C526.922 146.927 525.666 146.986 524.028 147.755C521.494 148.101 518.733 146.366 516.199 147.804C513.606 146.927 512.302 148.279 509.661 145.738C508.706 146.76 506.863 144.549 506.016 145.716C504.846 145.396 504.415 147.544 503.04 147.165C501.212 147.614 498.964 147.7 497.11 147.116C497.11 147.529 496.39 147.168 496.278 146.893L496.3 146.871C494.688 146.373 489.282 146.715 490.694 146.908C490.657 147.443 487.31 147.087 483.75 147.514C480.187 148.368 476.42 146.005 475.547 147.384C473.158 148.249 470.814 145.248 468.484 146.719C466.155 147.622 463.81 146.648 461.421 146.043C457.212 146.102 452.765 142.669 448.559 146.005C446.118 146.719 444.145 145.849 441.66 146.767C438.814 147.146 435.864 144.025 433.04 145.285C431.703 143.219 431.179 145.641 429.741 146.767C428.775 146.934 427.735 149.509 426.78 146.685C425.272 148.539 424.016 148.301 422.452 148.097C420.765 147.28 418.83 149.331 417.12 148.06C415.627 149.141 413.929 148.249 412.469 148.023C412.161 148.283 411.789 148.179 411.67 148.569C409.671 147.109 407.654 150.872 405.703 150.089C402.501 150.337 399.25 150.612 396.047 150.077C393.094 148.937 390.092 150.575 387.153 150.055C384.727 148.32 382.516 151.597 380.15 151.289C378.415 151.812 377.137 152.344 375.855 150.646C374.744 148.294 373.871 150.419 372.533 148.305C370.13 147.662 368.22 145.017 365.482 146.024C362.049 143.817 359.277 141.833 355.8 144.683C353.886 144.634 352.426 145.132 350.624 145.37C348.458 144.122 347.418 143.602 345.375 144.17C341.682 142.758 338.513 141.688 334.69 142.023C332.512 140.206 334.905 144.713 332.657 146.875C331.892 146.28 330.168 147.09 329.525 146.983C329.057 148.064 329.068 148.573 328.626 148.658C327.229 149.88 322.351 149.167 320.846 148.788C319.041 147.755 317.51 147.982 315.693 147.566C313.795 146.511 311.822 149.36 309.92 147.577C308.508 146.165 305.606 147.436 304.157 147.529C302.616 147.031 301.958 151.092 300.13 148.952C298.696 148.562 297.262 149.033 295.839 148.881C293.376 149.26 291.139 151.753 288.654 149.594C286.454 150.297 284.266 151.303 282.066 149.594C280.331 151.612 274.918 143.13 273.521 143.969C272.578 144.337 271.909 147.711 270.88 146.024C269.65 147.295 268.142 147.447 266.901 146.841C266.54 147.139 266.206 144.943 265.73 147.388C264.906 147.231 263.72 147.328 262.873 147.365C259.596 148.446 256.323 145.987 253.046 147.365C251.085 147.436 249.067 147.462 247.106 147.376C245.861 146.024 245.144 145.526 243.996 146.332C243.279 145.727 242.309 147.923 241.641 145.905C241.079 145.456 240.816 145.537 240.336 144.634C238.984 145.24 237.383 144.705 235.748 143.992C234.745 144.501 233.942 144.716 232.977 144.133C232.939 144.701 232.523 144.062 232.319 144.69C230.324 145.913 227.37 144.891 225.208 144.653C221.682 143.94 218.048 144.761 214.534 144.69C213.196 145.036 212.022 144.727 210.696 143.955C209.667 143.397 208.593 142.127 207.564 143.977C205.914 146.161 204.168 143.145 202.545 143.929C200.237 143.512 198.491 145.069 196.065 145.329C193.806 145.069 192.885 146.931 190.89 146.719C188.739 146.254 186.55 145.864 184.399 145.994C182.534 144.831 180.647 144.891 178.782 145.994C176.701 146.99 174.621 145.994 172.54 146.005C170.448 145.173 168.561 143.631 166.469 145.259C165.86 144.393 165.251 144.545 164.664 145.437C164.485 146.184 164.259 145.745 163.958 146.269C162.929 145.913 162.2 146.15 161.004 146.674C159.236 145.95 157.92 146.815 156.26 147.183C153.295 148.383 149.829 147.373 146.767 147.265C144.029 147.443 144.962 146.801 143.36 149.234C142.487 150.932 142.692 148.948 141.64 150.066C140.121 149.319 138.304 150.65 136.762 150.029C133.905 151.002 131.059 149.851 128.202 150.029C124.877 151.37 121.641 147.358 118.423 148.498C115.685 147.774 113.07 151.092 110.331 151.233C108.37 150.568 107.404 152.433 105.717 149.453C104.257 148.324 102.693 144.883 100.806 146.306C97.9856 146.462 94.783 146.366 91.9111 146.388C88.7569 146.436 84.3803 151.467 81.5715 149.461C78.3578 149.305 75.0921 148.699 71.7 148.747C68.7947 150.716 65.8188 147.844 62.7091 149.423C61.4162 148.201 59.9115 151.597 58.6445 149.401C56.6234 151.824 56.4823 147.139 55.8135 146.949C54.2828 150.204 53.5658 147.057 52.2394 148.766C50.9725 150.913 50.0771 146.797 48.8325 145.288C47.9854 147.153 47.3501 146.845 46.5142 146.024C45.4999 142.298 44.1475 148.316 43.0961 145.987C40.7295 147.577 38.3517 145.879 35.9851 145.987C34.276 145.582 30.6537 146.128 29.149 146.009C28.157 147.328 28.2982 149.762 27.6889 148.038C27.0796 146.957 26.4814 151.244 25.5117 149.357C23.5017 150.794 21.5661 152.786 19.701 149.271C17.7393 150.196 15.3096 148.45 12.9169 150.349C10.528 148.235 8.19107 150.616 6.08452 151.742C3.21632 152.645 1.47014 147.064 -1.54295 148.666C-5.18764 147.633 -9.05151 149.769 -12.6702 148.714C-15.2895 145.638 -18.0722 145.924 -20.6655 147.183C-21.7429 148.108 -22.3968 146.934 -23.307 145.983C-24.6817 143.776 -25.9374 143.836 -27.5759 144.605C-30.1097 144.95 -32.8702 143.215 -35.404 144.653C-37.9972 143.776 -39.3013 145.129 -41.9429 142.587C-42.8977 143.609 -44.7405 141.398 -45.5876 142.565C-46.7579 142.246 -47.1888 144.393 -48.5635 144.014C-50.3914 144.464 -52.6391 144.549 -54.4931 143.966C-54.4931 144.051 -54.4708 144.278 -54.4336 144.612C-54.4931 144.33 -54.5339 144.148 -54.5525 144.099L-54.5302 144.077C-56.1427 143.579 -61.5484 143.921 -60.1366 144.114C-60.1737 144.649 -63.5212 144.293 -67.0804 144.72C-70.6434 145.574 -74.4107 143.212 -75.2838 144.59C-77.6727 145.456 -80.017 142.454 -82.3465 143.925C-84.676 144.828 -87.0203 143.854 -89.4092 143.249C-93.6187 143.308 -98.0658 139.875 -102.272 143.212C-104.712 143.925 -106.685 143.056 -109.171 143.973C-112.017 144.352 -114.967 141.231 -117.79 142.491C-119.128 140.425 -119.652 142.847 -121.089 143.973C-122.055 144.14 -123.096 146.715 -124.05 143.891C-125.559 145.745 -126.815 145.508 -128.379 145.303C-130.066 144.486 -132.001 146.537 -133.71 145.266C-133.807 145.337 -133.903 145.396 -134 145.452V160.038C-131.641 161.48 -128.557 160.881 -126.573 159.039C-124.664 158.552 -123.43 156.925 -121.171 157.411C-118.552 154.703 -115.925 157.969 -113.306 157.411C-110.594 158.348 -107.031 158.693 -104.363 157.46C-102.966 156.913 -102.821 153.365 -101.699 155.491C-100.503 152.5 -98.4374 156.074 -97.2299 155.881C-93.4626 154.432 -89.673 159.607 -85.9429 158.779C-83.4239 160.893 -81.414 161.119 -78.7241 161.472C-75.1277 161.413 -71.8286 161.673 -68.4439 159.941C-65.2785 156.189 -62.5404 158.206 -59.1074 158.741C-57.6882 156.46 -56.4324 160.711 -54.9835 159.455C-53.6683 157.913 -52.3196 158.006 -51.0044 159.432C-51.0044 158.823 -51.2645 157.801 -51.6435 156.36C-50.9598 156.687 -50.2317 156.917 -49.0539 157.445C-47.7387 157.326 -46.4346 157.114 -45.1194 157.445C-43.1726 157.434 -40.2413 157.813 -38.6288 157.055C-37.9229 155.368 -37.6963 156.152 -36.8232 155.762C-35.7941 153.139 -34.8876 154.491 -33.7878 155.431C-31.9933 155.81 -30.9308 156.427 -29.3889 156.442C-28.0143 157.084 -27.561 159.161 -25.9449 157.333C-25.3839 159.674 -25.956 159.897 -25.982 160.101C-24.2953 159.663 -22.3968 161.643 -20.5912 160.636C-19.0233 160.41 -17.7118 161.502 -16.0622 161.513C-11.9977 163.984 -7.75488 162.13 -3.83527 160.978C-0.573257 157.43 3.36122 160.692 6.69383 160.822C10.0896 160.859 12.7794 161.416 16.1492 158.767C19.088 156.427 22.8181 159.325 25.5934 158.686C26.4888 157.333 26.3811 160.384 26.9681 157.582C27.7074 155.587 28.666 157.512 29.4648 157.118C30.219 155.765 30.9695 156.241 31.7236 156.62C32.6339 159.41 34.1126 157.096 34.8668 156.144C36.1114 155.349 36.3232 152.749 37.9987 154.733C39.5294 156.572 41.0824 156.572 42.6131 154.781C44.155 155.138 44.2627 154.235 45.433 154.792C46.6628 153.295 48.9997 154.383 50.4672 153.919C51.8902 153.978 53.2017 155.814 54.5986 154.461C56.486 154.354 58.2581 157.805 59.956 155.647C61.1152 156.523 62.2149 154.513 63.3853 154.718C64.9754 153.826 68.1408 155.242 69.7569 154.636C72.2908 154.944 73.892 153.224 76.1621 155.669C76.9014 159.362 77.5962 156.215 78.3244 156.371C79.112 157.333 79.5318 156.144 80.26 157.879C81.7424 158.377 84.228 154.554 85.9258 155.505C88.0064 157.393 90.373 155.851 92.4759 155.635C93.661 155.933 95.2512 156.798 96.3955 155.539C98.8327 156.252 98.7621 154.666 100.772 154.666C101.43 155.271 102.503 158.073 103.581 158.002C104.357 158.857 105.959 157.385 106.869 158.775C108.734 159.035 110.61 162.159 112.449 160.733C113.657 162.193 115.748 159.949 116.967 160.863C118.509 160.116 119.538 159.083 121.247 159.44C122.573 159.711 124.401 159.213 125.705 159.607C126.4 161.138 126.983 162.338 127.738 160.722C128.848 158.975 129.926 159.678 131.026 160.982C132.341 164.032 133.797 160.603 135.22 162.122C136.762 159.808 138.568 164.01 140.132 162.182C141.577 163.831 143.026 164.664 144.471 162.182C146.693 163.118 148.595 162.68 150.746 161.48C152.957 160.603 156.041 159.522 158.255 161.647C159.786 162.642 161.29 163.913 162.832 163.025C164.779 163.441 166.536 164.08 168.412 164.582C169.954 165.414 174.962 165.247 176.467 164.782C176.215 160.651 181.152 162.289 183.136 162.873C186.662 163.148 189.805 162.457 193.357 163.549C196.489 163.657 198.759 165.841 201.783 165.425C204.02 165.187 207.519 166.778 209.778 165.507C212.193 165.269 214.367 165.41 216.856 163.003C219.724 164.095 222.187 164.036 225.018 163.549C227.158 163.263 229.298 164.058 231.438 163.549C232.441 163.322 233.445 164.69 234.425 163.43C235.347 162.884 236.172 162.468 237.078 162.327C237.639 161.721 238.345 162.219 238.884 162.089C240.173 161.851 241.12 161.234 242.41 159.904C243.52 158.634 245.111 158.79 246.34 158.812C247.689 158.645 248.636 159.321 250.022 158.552C251.969 157.697 253.214 157.85 254.9 155.773C258.021 154.291 262.346 155.011 265.801 154.799C269.23 153.339 271.887 156.011 275.041 154.536C276.75 152.979 277.225 155.182 279.068 154.447C280.157 152.463 282.917 156.137 284.017 156.412C286.361 157.434 288.044 157.467 290.292 155.45C291.57 156.46 293.03 155.119 294.405 155.022C294.81 153.763 295.278 154.179 295.683 155.164C295.947 155.791 296.125 155.223 296.556 156.315C297.693 155.32 298.982 156.159 299.926 155.364C303.214 155.149 306.561 156.241 309.909 155.743C311.963 156.252 314.018 154.127 316.076 155.732C319.052 157.263 321.694 156.3 324.071 156.895C325.699 155.899 328.028 156.386 330.06 154.807C332.75 153.395 334.69 157.504 337.855 154.127C339.969 155.754 342.206 156.631 344.416 155.933C346.723 157.549 350.201 159.719 353.084 158.819C353.909 159.496 354.039 157.311 354.864 157.456C355.833 156.694 357.758 158.749 358.88 157.504C360.997 157.601 363.925 161.067 365.634 156.861C367.139 156.126 366.949 155.829 369.138 155.439C370.594 155.996 371.909 156.234 373.354 156.185C374.313 155.509 375.305 155.569 376.26 156.163C378.114 157.244 378.939 154.621 380.54 157.174C382.836 156.698 385.407 157.151 387.866 159.559C391.5 160.807 395.579 164.069 399.488 162.241C402.237 161.673 404.986 162.691 407.736 162.193C410.485 162.193 413.234 161.208 415.984 162.215C418.398 164.4 422.006 163.891 424.232 161.825C426.141 161.338 427.375 159.711 429.633 160.198C432.253 157.489 434.88 160.755 437.499 160.198C440.211 161.134 443.774 161.48 446.441 160.246C447.838 159.7 447.983 156.152 449.105 158.277C450.302 155.286 452.367 158.86 453.575 158.667C457.342 157.218 461.132 162.394 464.862 161.565C467.381 163.679 469.391 163.906 472.081 164.259C475.677 164.199 478.976 164.459 482.361 162.728C485.526 158.975 488.264 160.993 491.697 161.528C493.116 159.247 494.372 163.497 495.821 162.241C496.724 161.179 497.645 160.893 498.559 161.279C499.087 161.502 499.644 161.052 499.51 160.499L499.503 160.465C499.377 159.945 499.893 159.499 500.387 159.707C500.952 159.945 501.602 160.176 502.524 160.588C503.839 160.469 505.143 160.257 506.458 160.588C508.405 160.577 511.336 160.956 512.949 160.198C513.654 158.511 513.881 159.295 514.754 158.905C515.783 156.282 516.69 157.634 517.79 158.574C519.584 158.953 520.647 159.57 522.188 159.585C523.563 160.228 524.016 162.304 525.633 160.476C526.194 162.817 525.621 163.04 525.595 163.244C527.282 162.806 529.181 164.786 530.986 163.779C532.55 163.553 533.866 164.645 535.515 164.656C539.58 167.127 543.823 165.273 547.742 164.121C551.004 160.573 554.939 159.748 558.271 159.878C561.667 159.915 564.357 160.473 567.727 157.824C570.665 155.483 574.396 158.381 577.171 157.742C578.066 156.39 577.959 159.44 578.546 156.639C578.783 156.003 579.066 155.76 579.333 155.719V152.747C579.333 151.446 579.277 151.233 579.263 151.188H579.292Z" fill="white"/>
</g>
<rect x="16" y="157" width="170" height="8" rx="4" fill="#D8E6FC"/>
<rect x="190" y="157" width="15" height="18" rx="2" fill="#BED6F9"/>
<rect x="192" y="169" width="11" height="4" fill="white"/>
<mask id="path-12-inside-1_2947_808" fill="white">
<path d="M209 163C209 159.686 211.686 157 215 157H268C271.314 157 274 159.686 274 163V199H209V163Z"/>
</mask>
<path d="M209 163C209 159.686 211.686 157 215 157H268C271.314 157 274 159.686 274 163V199H209V163Z" fill="#EFF5FF"/>
<path d="M208 163C208 159.134 211.134 156 215 156H268C271.866 156 275 159.134 275 163H273C273 160.239 270.761 158 268 158H215C212.239 158 210 160.239 210 163H208ZM274 199H209H274ZM208 199V163C208 159.134 211.134 156 215 156V158C212.239 158 210 160.239 210 163V199H208ZM268 156C271.866 156 275 159.134 275 163V199H273V163C273 160.239 270.761 158 268 158V156Z" fill="#BED6F9" mask="url(#path-12-inside-1_2947_808)"/>
<circle cx="20" cy="12" r="4" fill="#BED6F9"/>
<path d="M28 15L31 12L28 9" stroke="#BED6F9" stroke-linecap="round" stroke-linejoin="round"/>
<rect x="35" y="9.5" width="24" height="5" rx="2.5" fill="#D8E6FC"/>
<path d="M63 15L66 12L63 9" stroke="#BED6F9" stroke-linecap="round" stroke-linejoin="round"/>
<rect x="70" y="9.5" width="20" height="5" rx="2.5" fill="#D8E6FC"/>
<path d="M94 15L97 12L94 9" stroke="#BED6F9" stroke-linecap="round" stroke-linejoin="round"/>
<rect x="101" y="9.5" width="74" height="5" rx="2.5" fill="#D8E6FC"/>
</svg>
