<svg width="290" height="200" viewBox="0 0 290 200" fill="none" xmlns="http://www.w3.org/2000/svg">
<rect x="0.5" y="0.5" width="289" height="199" fill="white" stroke="#D8E6FC"/>
<rect x="16" y="23.4287" width="129" height="110.571" rx="3.68571" fill="#EFF5FF"/>
<rect x="149.607" y="23.4287" width="59.8929" height="52.5214" rx="3.68571" fill="#EFF5FF"/>
<rect x="149.607" y="81.4785" width="59.8929" height="52.5214" rx="3.68571" fill="#EFF5FF"/>
<rect x="214.107" y="23.4287" width="59.8929" height="52.5214" rx="3.68571" fill="#EFF5FF"/>
<rect x="214.107" y="81.4785" width="59.8929" height="52.5214" rx="3.68571" fill="#EFF5FF"/>
<path d="M45.9449 75.9467C52.3052 75.9467 57.4611 70.7907 57.4611 64.4305C57.4611 58.0703 52.3052 52.9143 45.9449 52.9143C39.5847 52.9143 34.4287 58.0703 34.4287 64.4305C34.4287 70.7907 39.5847 75.9467 45.9449 75.9467Z" fill="#BED6F9"/>
<path d="M72.8161 96.6469L57.4611 82.0694L34.4287 103.936V103.951H126.558V103.936L95.8485 74.7806L72.8161 96.6469Z" fill="#BED6F9"/>
<path d="M164.733 49.0729C167.489 49.0729 169.723 46.8388 169.723 44.0829C169.723 41.327 167.489 39.0929 164.733 39.0929C161.978 39.0929 159.743 41.327 159.743 44.0829C159.743 46.8388 161.978 49.0729 164.733 49.0729Z" fill="#BED6F9"/>
<path d="M176.377 58.0422L169.723 51.7257L159.743 61.2004V61.2071H199.663V61.2004L186.357 48.5675L176.377 58.0422Z" fill="#BED6F9"/>
<path d="M229.233 49.0729C231.989 49.0729 234.223 46.8388 234.223 44.0829C234.223 41.327 231.989 39.0929 229.233 39.0929C226.478 39.0929 224.243 41.327 224.243 44.0829C224.243 46.8388 226.478 49.0729 229.233 49.0729Z" fill="#BED6F9"/>
<path d="M240.877 58.0422L234.223 51.7257L224.243 61.2004V61.2071H264.163V61.2004L250.857 48.5675L240.877 58.0422Z" fill="#BED6F9"/>
<path d="M164.733 107.123C167.489 107.123 169.723 104.889 169.723 102.133C169.723 99.3769 167.489 97.1428 164.733 97.1428C161.978 97.1428 159.743 99.3769 159.743 102.133C159.743 104.889 161.978 107.123 164.733 107.123Z" fill="#BED6F9"/>
<path d="M176.377 116.092L169.723 109.776L159.743 119.25V119.257H199.663V119.25L186.357 106.618L176.377 116.092Z" fill="#BED6F9"/>
<path d="M229.233 107.123C231.989 107.123 234.223 104.889 234.223 102.133C234.223 99.3769 231.989 97.1428 229.233 97.1428C226.478 97.1428 224.243 99.3769 224.243 102.133C224.243 104.889 226.478 107.123 229.233 107.123Z" fill="#BED6F9"/>
<path d="M240.877 116.092L234.223 109.776L224.243 119.25V119.257H264.163V119.25L250.857 106.618L240.877 116.092Z" fill="#BED6F9"/>
<rect x="224.704" y="125.369" width="17.9986" height="4.48429" rx="2.24214" fill="white" stroke="#BED6F9" stroke-width="0.921429"/>
<rect x="246.326" y="125.369" width="17.9986" height="4.48429" rx="2.24214" fill="white" stroke="#BED6F9" stroke-width="0.921429"/>
<rect x="16" y="146" width="170" height="8" rx="4" fill="#D8E6FC"/>
<rect x="16" y="160" width="130" height="8" rx="4" fill="#D8E6FC"/>
<rect x="16" y="174" width="96" height="8" rx="4" fill="#D8E6FC"/>
<rect x="190" y="146" width="15" height="18" rx="2" fill="#BED6F9"/>
<rect x="192" y="158" width="11" height="4" fill="white"/>
<mask id="path-24-inside-1_2947_809" fill="white">
<path d="M209 152C209 148.686 211.686 146 215 146H268C271.314 146 274 148.686 274 152V199H209V152Z"/>
</mask>
<path d="M209 152C209 148.686 211.686 146 215 146H268C271.314 146 274 148.686 274 152V199H209V152Z" fill="#EFF5FF"/>
<path d="M208 152C208 148.134 211.134 145 215 145H268C271.866 145 275 148.134 275 152H273C273 149.239 270.761 147 268 147H215C212.239 147 210 149.239 210 152H208ZM274 199H209H274ZM208 199V152C208 148.134 211.134 145 215 145V147C212.239 147 210 149.239 210 152V199H208ZM268 145C271.866 145 275 148.134 275 152V199H273V152C273 149.239 270.761 147 268 147V145Z" fill="#BED6F9" mask="url(#path-24-inside-1_2947_809)"/>
<circle cx="20" cy="12" r="4" fill="#BED6F9"/>
<path d="M28 15L31 12L28 9" stroke="#BED6F9" stroke-linecap="round" stroke-linejoin="round"/>
<rect x="35" y="9.5" width="24" height="5" rx="2.5" fill="#D8E6FC"/>
<path d="M63 15L66 12L63 9" stroke="#BED6F9" stroke-linecap="round" stroke-linejoin="round"/>
<rect x="70" y="9.5" width="20" height="5" rx="2.5" fill="#D8E6FC"/>
<path d="M94 15L97 12L94 9" stroke="#BED6F9" stroke-linecap="round" stroke-linejoin="round"/>
<rect x="101" y="9.5" width="74" height="5" rx="2.5" fill="#D8E6FC"/>
</svg>
