<svg width="290" height="200" viewBox="0 0 290 200" fill="none" xmlns="http://www.w3.org/2000/svg">
<rect x="0.5" y="0.5" width="289" height="199" fill="white" stroke="#D8E6FC"/>
<rect x="16" y="24" width="175.071" height="110.571" rx="3.68571" fill="#EFF5FF"/>
<path d="M68.9806 76.5183C75.3408 76.5183 80.4968 71.3623 80.4968 65.0021C80.4968 58.6418 75.3408 53.4858 68.9806 53.4858C62.6203 53.4858 57.4644 58.6418 57.4644 65.0021C57.4644 71.3623 62.6203 76.5183 68.9806 76.5183Z" fill="#BED6F9"/>
<path d="M95.8517 97.2184L80.4968 82.6409L57.4644 104.507V104.522H149.594V104.507L118.884 75.3522L95.8517 97.2184Z" fill="#BED6F9"/>
<rect x="196.6" y="24" width="77.4" height="52.5214" rx="3.68571" fill="#EFF5FF"/>
<path d="M220.019 49.6443C222.774 49.6443 225.009 47.4102 225.009 44.6543C225.009 41.8984 222.774 39.6643 220.019 39.6643C217.263 39.6643 215.029 41.8984 215.029 44.6543C215.029 47.4102 217.263 49.6443 220.019 49.6443Z" fill="#BED6F9"/>
<path d="M231.662 58.6137L225.009 52.2973L215.029 61.772V61.7786H254.949V61.772L241.642 49.139L231.662 58.6137Z" fill="#BED6F9"/>
<rect x="196.6" y="82.05" width="77.4" height="52.5214" rx="3.68571" fill="#EFF5FF"/>
<path d="M220.019 107.694C222.774 107.694 225.009 105.46 225.009 102.704C225.009 99.9485 222.774 97.7144 220.019 97.7144C217.263 97.7144 215.029 99.9485 215.029 102.704C215.029 105.46 217.263 107.694 220.019 107.694Z" fill="#BED6F9"/>
<path d="M231.662 116.664L225.009 110.347L215.029 119.822V119.829H254.949V119.822L241.642 107.189L231.662 116.664Z" fill="#BED6F9"/>
<rect x="215.489" y="125.941" width="17.9986" height="4.48429" rx="2.24214" fill="white" stroke="#BED6F9" stroke-width="0.921429"/>
<rect x="237.112" y="125.941" width="17.9986" height="4.48429" rx="2.24214" fill="white" stroke="#BED6F9" stroke-width="0.921429"/>
<rect x="16" y="147" width="170" height="8" rx="4" fill="#D8E6FC"/>
<rect x="16" y="161" width="130" height="8" rx="4" fill="#D8E6FC"/>
<rect x="16" y="175" width="96" height="8" rx="4" fill="#D8E6FC"/>
<rect x="190" y="147" width="15" height="18" rx="2" fill="#BED6F9"/>
<rect x="192" y="159" width="11" height="4" fill="white"/>
<mask id="path-18-inside-1_2947_811" fill="white">
<path d="M209 153C209 149.686 211.686 147 215 147H268C271.314 147 274 149.686 274 153V199H209V153Z"/>
</mask>
<path d="M209 153C209 149.686 211.686 147 215 147H268C271.314 147 274 149.686 274 153V199H209V153Z" fill="#EFF5FF"/>
<path d="M208 153C208 149.134 211.134 146 215 146H268C271.866 146 275 149.134 275 153H273C273 150.239 270.761 148 268 148H215C212.239 148 210 150.239 210 153H208ZM274 199H209H274ZM208 199V153C208 149.134 211.134 146 215 146V148C212.239 148 210 150.239 210 153V199H208ZM268 146C271.866 146 275 149.134 275 153V199H273V153C273 150.239 270.761 148 268 148V146Z" fill="#BED6F9" mask="url(#path-18-inside-1_2947_811)"/>
<circle cx="20" cy="12" r="4" fill="#BED6F9"/>
<path d="M28 15L31 12L28 9" stroke="#BED6F9" stroke-linecap="round" stroke-linejoin="round"/>
<rect x="35" y="9.5" width="24" height="5" rx="2.5" fill="#D8E6FC"/>
<path d="M63 15L66 12L63 9" stroke="#BED6F9" stroke-linecap="round" stroke-linejoin="round"/>
<rect x="70" y="9.5" width="20" height="5" rx="2.5" fill="#D8E6FC"/>
<path d="M94 15L97 12L94 9" stroke="#BED6F9" stroke-linecap="round" stroke-linejoin="round"/>
<rect x="101" y="9.5" width="74" height="5" rx="2.5" fill="#D8E6FC"/>
</svg>
